<svg width="34" height="34" viewBox="0 0 34 34" fill="none" xmlns="http://www.w3.org/2000/svg">
<path d="M10.9902 8.70965C9.69628 8.17681 8.61801 7.73277 7.78028 7.51828C6.9688 7.31051 5.92287 7.19328 5.15335 7.97387C4.38383 8.75447 4.51599 9.79861 4.73533 10.607C4.96177 11.4416 5.42116 12.5134 5.97243 13.7996L6.88868 15.9375H14.1667C14.7535 15.9375 15.2292 16.4132 15.2292 17C15.2292 17.5868 14.7535 18.0625 14.1667 18.0625H6.88868L5.97243 20.2004C5.42116 21.4866 4.96176 22.5584 4.73533 23.393C4.51599 24.2014 4.38383 25.2455 5.15335 26.0261C5.92287 26.8067 6.9688 26.6895 7.78028 26.4817C8.61801 26.2672 9.69627 25.8232 10.9902 25.2904L27.1996 18.6159C27.4908 18.4961 27.8062 18.3664 28.0416 18.2283C28.2539 18.1036 28.8198 17.7355 28.8198 17C28.8198 16.2645 28.2539 15.8964 28.0416 15.7718C27.8062 15.6336 27.4908 15.5039 27.1996 15.3841L10.9902 8.70965Z" fill="#5982C8"/>
</svg>
