<svg width="84" height="147" viewBox="0 0 84 147" fill="none" xmlns="http://www.w3.org/2000/svg">
<g clip-path="url(#clip0)">
<path d="M39.74 62.51V51.38H46.36L34 39.01L21.64 51.38H28.62V62.51V71.25V85.99V103.84C28.62 108.67 24.71 112.58 19.88 112.58C15.05 112.58 11.14 108.67 11.14 103.84V85.99V62.51H0V103.84C0 111.68 4.54 118.45 11.13 121.69C13.77 122.99 16.74 123.72 19.87 123.72C23 123.72 25.97 122.99 28.61 121.69C35.2 118.46 39.74 111.68 39.74 103.84V62.51Z" fill="#5982C8"/>
<path d="M63.19 72.44C60.05 72.44 57.09 73.17 54.45 74.47C47.86 77.7 43.32 84.48 43.32 92.32V133.65H36.5L48.87 146.02L61.24 133.65H54.46V110.16C57.1 111.46 60.07 112.19 63.2 112.19C74.17 112.19 83.07 103.29 83.07 92.32C83.06 81.34 74.17 72.44 63.19 72.44ZM63.19 101.06C58.36 101.06 54.45 97.15 54.45 92.32C54.45 87.49 58.36 83.58 63.19 83.58C68.02 83.58 71.93 87.49 71.93 92.32C71.93 97.15 68.02 101.06 63.19 101.06Z" fill="#5982C8"/>
<path d="M41.54 14.57H36.68V32.78H41.54V14.57Z" fill="#5982C8"/>
<path d="M39.1 13.36C40.442 13.36 41.53 12.2721 41.53 10.93C41.53 9.58795 40.442 8.5 39.1 8.5C37.7579 8.5 36.67 9.58795 36.67 10.93C36.67 12.2721 37.7579 13.36 39.1 13.36Z" fill="#5982C8"/>
<path d="M50.03 0H44.58V32.78H50.03V0Z" fill="#5982C8"/>
<path d="M24.6 14.57V11.08C24.6 11.04 24.59 11 24.59 10.97C24.59 8.42001 26.74 6.36001 29.4 6.36001C29.98 6.36001 30.53 6.48001 31.04 6.66001L31.62 0.720006C30.9 0.570006 30.16 0.490005 29.4 0.490005C27.67 0.490005 26.04 0.880005 24.59 1.56001C20.97 3.27001 18.47 6.84001 18.47 10.98V14.58H13.61V20.65H18.47V32.79H24.59V20.64H34.25V14.57H24.6Z" fill="#5982C8"/>
<path d="M61.56 30.96C57.87 30.96 54.88 27.97 54.88 24.28C54.88 20.59 57.87 17.6 61.56 17.6C65.25 17.6 68.24 20.59 68.24 24.28" stroke="#5982C8" stroke-width="3.5" stroke-miterlimit="10"/>
<path d="M69.45 21.61H53.67V24.27H69.45V21.61Z" fill="#5982C8"/>
<path d="M68.24 26.1C68.24 28.78 65.25 30.96 61.56 30.96" stroke="#5982C8" stroke-width="3.5" stroke-miterlimit="10"/>
<path d="M61.49 32.23C63.42 32.23 63.42 29.23 61.49 29.23C59.56 29.23 59.55 32.23 61.49 32.23Z" fill="#5982C8"/>
<path d="M61.55 32.68C63.48 32.68 63.48 29.68 61.55 29.68C59.62 29.68 59.61 32.68 61.55 32.68Z" fill="#5982C8"/>
</g>
<defs>
<clipPath id="clip0">
<rect width="83.06" height="146.01" fill="white"/>
</clipPath>
</defs>
</svg>
