<svg width="27" height="27" viewBox="0 0 27 27" fill="none" xmlns="http://www.w3.org/2000/svg">
<path fill-rule="evenodd" clip-rule="evenodd" d="M17.7962 4.12688C16.8334 4.15014 15.5584 4.35992 13.7003 4.66962L11.8202 4.98297C10.8937 5.13737 10.302 5.23807 9.86921 5.36691C9.46657 5.48678 9.33858 5.59387 9.2666 5.67884C9.19463 5.7638 9.11003 5.90766 9.05798 6.32453C9.00205 6.77257 9 7.37284 9 8.31205V10.2734C9 10.8947 8.49632 11.3984 7.875 11.3984C7.25368 11.3984 6.75 10.8947 6.75 10.2734V8.31205C6.75 8.28984 6.75 8.26771 6.75 8.24565C6.74995 7.39215 6.7499 6.6498 6.82532 6.04578C6.90657 5.39497 7.08858 4.76896 7.54981 4.22449C8.01104 3.68003 8.59861 3.39759 9.2272 3.21045C9.81061 3.03676 10.5429 2.91476 11.3848 2.77449C11.4065 2.77087 11.4284 2.76723 11.4503 2.76358L13.416 2.43596C15.1673 2.14402 16.6006 1.90511 17.7419 1.87754C18.9331 1.84876 20.0121 2.04092 20.9087 2.80044C21.8053 3.55995 22.1722 4.59266 22.3397 5.77245C22.5001 6.90273 22.5 8.35574 22.5 10.1313V16.8687C22.5 18.6442 22.5001 20.0972 22.3397 21.2275C22.1722 22.4073 21.8053 23.44 20.9087 24.1995C20.0121 24.959 18.9331 25.1512 17.7419 25.1224C16.6006 25.0948 15.1673 24.8559 13.416 24.564L11.3848 24.2255C10.5429 24.0852 9.81061 23.9632 9.2272 23.7895C8.59861 23.6024 8.01104 23.3199 7.54981 22.7755C7.08858 22.231 6.90657 21.605 6.82532 20.9542C6.7499 20.3501 6.74995 19.6078 6.75 18.7543L6.75 16.9492C6.75 16.3279 7.25368 15.8242 7.875 15.8242C8.49632 15.8242 9 16.3279 9 16.9492V18.6879C9 19.6271 9.00205 20.2274 9.05798 20.6754C9.11003 21.0923 9.19463 21.2361 9.2666 21.3211C9.33858 21.4061 9.46657 21.5132 9.86921 21.633C10.302 21.7619 10.8937 21.8626 11.8202 22.017L13.7003 22.3303C15.5584 22.64 16.8334 22.8498 17.7962 22.8731C18.7276 22.8956 19.1574 22.7342 19.4543 22.4827C19.7513 22.2312 19.9811 21.8337 20.112 20.9113C20.2473 19.9578 20.25 18.6657 20.25 16.7819V10.2181C20.25 8.3343 20.2473 7.04215 20.112 6.08864C19.9811 5.16626 19.7513 4.76875 19.4543 4.51723C19.1574 4.26571 18.7276 4.10438 17.7962 4.12688Z" fill="black"/>
<path fill-rule="evenodd" clip-rule="evenodd" d="M12.7045 9.32948C12.2652 9.76882 12.2652 10.4811 12.7045 10.9205L14.159 12.375H4.5C3.87868 12.375 3.375 12.8787 3.375 13.5C3.375 14.1213 3.87868 14.625 4.5 14.625H14.159L12.7045 16.0795C12.2652 16.5188 12.2652 17.2311 12.7045 17.6705C13.1438 18.1098 13.8562 18.1098 14.2955 17.6705L17.6705 14.2955C18.1098 13.8561 18.1098 13.1438 17.6705 12.7045L14.2955 9.32948C13.8562 8.89014 13.1438 8.89014 12.7045 9.32948Z" fill="black"/>
</svg>
