<svg width="71" height="125" viewBox="0 0 71 125" fill="none" xmlns="http://www.w3.org/2000/svg">
<g clip-path="url(#clip0)">
<path d="M33.9699 51.8278V42.0843H39.6287L29.0633 31.2456L18.498 42.0843H24.4645V51.8365V59.4946V72.4099V88.0503C24.4645 92.2823 21.1222 95.7083 16.9935 95.7083C12.8648 95.7083 9.52251 92.2823 9.52251 88.0503V72.4099V51.8278H0V88.0415C0 94.911 3.88081 100.843 9.51397 103.682C11.7706 104.821 14.3094 105.461 16.985 105.461C19.6605 105.461 22.1993 104.821 24.4559 103.682C30.0891 100.852 33.9699 94.911 33.9699 88.0415V51.8278Z" fill="#5982C8"/>
<path d="M54.015 60.5373C51.3309 60.5373 48.8007 61.1769 46.544 62.316C40.9109 65.1461 37.03 71.0868 37.03 77.9563V114.17H31.2003L41.7742 125.009L52.3481 114.17H46.5526V93.5879C48.8092 94.727 51.348 95.3666 54.0235 95.3666C63.4007 95.3666 71.0085 87.5683 71.0085 77.9563C70.9999 68.3355 63.4007 60.5373 54.015 60.5373ZM54.015 85.6056C49.8863 85.6056 46.544 82.1796 46.544 77.9476C46.544 73.7155 49.8863 70.2895 54.015 70.2895C58.1437 70.2895 61.486 73.7155 61.486 77.9476C61.486 82.1796 58.1437 85.6056 54.015 85.6056Z" fill="#5982C8"/>
<path d="M36.808 24.9895C37.338 24.9982 37.8765 25.007 38.4065 25.0158C38.6544 25.0245 38.851 24.7879 38.8595 24.4988C38.9023 21.362 38.945 18.2164 38.9792 15.0795C38.9792 14.7904 38.7569 14.5538 38.4663 14.5538C37.8508 14.5538 37.2354 14.5538 36.6199 14.5538C36.3378 14.5538 36.107 14.7904 36.1156 15.0795C36.1925 18.2076 36.2695 21.3357 36.3464 24.4637C36.3549 24.7441 36.5601 24.9807 36.808 24.9895Z" fill="#5982C8"/>
<path d="M37.5259 12.0742C38.3465 12.0742 39.0218 11.417 39.0303 10.6109C39.0474 9.80479 38.3636 9.14763 37.5088 9.15639C36.654 9.16516 35.9787 9.82231 36.0043 10.6284C36.03 11.4258 36.7138 12.0742 37.5259 12.0742Z" fill="#5982C8"/>
<path d="M43.1591 25.156C42.7659 25.1384 42.3727 25.1297 41.9709 25.1122C41.5264 25.0946 41.193 24.6653 41.2101 24.1396C41.5777 16.4114 41.9453 8.68323 42.3128 0.955068C42.347 0.429342 42.8599 0 43.4668 0C44.0139 0 44.5524 0 45.0995 0C45.7064 0 46.168 0.429342 46.1167 0.955068C45.4243 8.71828 44.7405 16.4815 44.0481 24.2359C43.9968 24.7617 43.6036 25.1735 43.1591 25.156Z" fill="#5982C8"/>
<path d="M26.6186 11.198C26.4818 11.2067 26.3622 11.1016 26.3365 10.9789C26.2168 10.1728 26.1057 9.37544 25.986 8.56933C25.9775 8.54304 25.969 8.51676 25.9604 8.48171C25.6612 6.55405 27.2853 4.89801 29.5848 4.81039C29.9694 4.79287 30.3455 4.83668 30.7046 4.91554C30.867 4.95059 31.0123 4.84544 31.0208 4.70525C31.0636 3.35589 31.1063 2.00652 31.1576 0.6484C31.1662 0.525731 31.055 0.420586 30.9097 0.403062C30.337 0.341727 29.7386 0.306679 29.1403 0.332965C27.576 0.403062 26.1314 0.762307 24.909 1.35813C21.8231 2.83016 20.2332 5.66032 20.9085 8.75333C21.0795 9.57697 21.2504 10.4006 21.4214 11.2242C21.447 11.3557 21.3616 11.4608 21.2248 11.4696C20.0964 11.5309 18.9681 11.6098 17.8398 11.6799C17.703 11.6886 17.6175 11.8025 17.6517 11.9252C18.0022 13.2746 18.3526 14.6327 18.7117 15.9821C18.7459 16.1047 18.8741 16.2011 19.0023 16.1923C20.0623 16.131 21.1308 16.0697 22.1907 16.0171C22.3189 16.0083 22.4386 16.1047 22.4728 16.2362C23.0797 19.1189 23.6781 21.9929 24.285 24.8756C24.3106 24.9983 24.4218 25.1034 24.5329 25.0946C25.7467 25.0596 26.952 25.0245 28.1658 25.007C28.2769 25.007 28.3539 24.9019 28.3368 24.7704C27.9094 21.8614 27.4905 18.9524 27.0631 16.0434C27.046 15.912 27.1315 15.8068 27.2597 15.8068C29.5249 15.728 31.7987 15.6841 34.0639 15.6579C34.1922 15.6579 34.2862 15.5527 34.2862 15.4213C34.2178 14.0281 34.1494 12.6262 34.081 11.233C34.0725 11.1016 33.9614 10.9964 33.8246 11.0052C31.4311 11.0315 29.0206 11.1016 26.6186 11.198Z" fill="#5982C8"/>
<path d="M50.3822 23.2721C49.006 23.1845 47.9802 22.2294 47.8776 21.0378C47.8862 21.0378 47.8862 21.0378 47.8947 21.0378C47.8691 20.845 47.8691 20.6523 47.8947 20.4507C47.9118 20.3193 47.946 20.1879 47.9888 20.0652C50.7156 20.1879 53.451 20.3456 56.1778 20.5471C56.2291 20.3982 56.2718 20.2492 56.306 20.1002C57.1608 16.8407 55.1435 14.0369 51.8525 14.0719C48.9803 14.0982 46.4159 16.3764 45.9971 19.224C45.5269 22.4748 47.4417 25.2699 50.1087 25.4539C52.3055 25.6028 54.5878 23.9293 55.776 21.5109C55.0494 21.4584 54.3314 21.4058 53.6048 21.3532C53.1005 22.5449 51.767 23.3597 50.3822 23.2721ZM51.7243 16.0872C53.2714 16.1573 54.2972 17.3402 54.1604 18.7684C52.2371 18.6457 50.3138 18.5494 48.3905 18.4617C48.7581 17.0598 50.1771 16.0084 51.7243 16.0872Z" fill="#5982C8"/>
</g>
<defs>
<clipPath id="clip0">
<rect width="71" height="125" fill="white"/>
</clipPath>
</defs>
</svg>
